HIERARCHY
ROOT root
{
  OFFSET 0 95.9893 0
  CHANNELS 6 Xposition Yposition Zposition Zrotation Xrotation Yrotation
  JOINT torso_1
  {
    OFFSET 0 5.22546 -1.18466
    CHANNELS 6 Xposition Yposition Zposition Zrotation Xrotation Yrotation
    JOINT torso_2
    {
      OFFSET 0 5.77894 1.10239
      CHANNELS 6 Xposition Yposition Zposition Zrotation Xrotation Yrotation
      JOINT torso_3
      {
        OFFSET -1.0557e-17 6.16289 0.118334
        CHANNELS 6 Xposition Yposition Zposition Zrotation Xrotation Yrotation
        JOINT torso_4
        {
          OFFSET -1.13649e-17 6.69386 -0.456341
          CHANNELS 6 Xposition Yposition Zposition Zrotation Xrotation Yrotation
          JOINT torso_5
          {
            OFFSET -2.02997e-17 7.82529 -1.54945
            CHANNELS 6 Xposition Yposition Zposition Zrotation Xrotation Yrotation
            JOINT torso_6
            {
              OFFSET -2.60628e-17 9.77186 -0.940923
              CHANNELS 6 Xposition Yposition Zposition Zrotation Xrotation Yrotation
              JOINT torso_7
              {
                OFFSET -2.98794e-17 10.8563 1.62248
                CHANNELS 6 Xposition Yposition Zposition Zrotation Xrotation Yrotation
                JOINT neck_1
                {
                  OFFSET -1.32927e-17 4.92478 0.736013
                  CHANNELS 6 Xposition Yposition Zposition Zrotation Xrotation Yrotation
                  JOINT neck_2
                  {
                    OFFSET -1.86396e-17 4.96043 0.433981
                    CHANNELS 6 Xposition Yposition Zposition Zrotation Xrotation Yrotation
                    JOINT head
                    {
                      OFFSET -2.06766e-17 4.97002 0.787173
                      CHANNELS 6 Xposition Yposition Zposition Zrotation Xrotation Yrotation
                      End Site
                      {
                        OFFSET 0 0.1 0
                      }
                    }
                  }
                }
                JOINT l_shoulder
                {
                  OFFSET 1.26863 -7.82717 7.75148
                  CHANNELS 6 Xposition Yposition Zposition Zrotation Xrotation Yrotation
                  JOINT l_up_arm
                  {
                    OFFSET 13.3291 3.34342 -3.36319
                    CHANNELS 6 Xposition Yposition Zposition Zrotation Xrotation Yrotation
                    JOINT l_low_arm
                    {
                      OFFSET 30.0522 0.0615366 0.141
                      CHANNELS 6 Xposition Yposition Zposition Zrotation Xrotation Yrotation
                      JOINT l_hand
                      {
                        OFFSET 24.9344 0.0510561 0.116988
                        CHANNELS 6 Xposition Yposition Zposition Zrotation Xrotation Yrotation
                        End Site
                        {
                          OFFSET 0.1 0 0
                        }
                      }
                    }
                  }
                }
                JOINT r_shoulder
                {
                  OFFSET -1.26863 -7.82715 7.75138
                  CHANNELS 6 Xposition Yposition Zposition Zrotation Xrotation Yrotation
                  JOINT r_up_arm
                  {
                    OFFSET -13.3291 3.34342 -3.36319
                    CHANNELS 6 Xposition Yposition Zposition Zrotation Xrotation Yrotation
                    JOINT r_low_arm
                    {
                      OFFSET -30.0522 0.0615366 0.141
                      CHANNELS 6 Xposition Yposition Zposition Zrotation Xrotation Yrotation
                      JOINT r_hand
                      {
                        OFFSET -24.9344 0.0510559 0.116988
                        CHANNELS 6 Xposition Yposition Zposition Zrotation Xrotation Yrotation
                        End Site
                        {
                          OFFSET -0.1 0 0
                        }
                      }
                    }
                  }
                }
              }
            }
          }
        }
      }
    }
  }
  JOINT l_up_leg
  {
    OFFSET 9.50369 -4.32711 2.09145
    CHANNELS 6 Xposition Yposition Zposition Zrotation Xrotation Yrotation
    JOINT l_low_leg
    {
      OFFSET -0.876987 -39.8926 -0.674123
      CHANNELS 6 Xposition Yposition Zposition Zrotation Xrotation Yrotation
      JOINT l_foot
      {
        OFFSET -2.39345 -41.5694 -6.22357
        CHANNELS 6 Xposition Yposition Zposition Zrotation Xrotation Yrotation
        JOINT l_toes
        {
          OFFSET 0.801613 -10.1701 12.8571
          CHANNELS 6 Xposition Yposition Zposition Zrotation Xrotation Yrotation
          End Site
          {
            OFFSET 0 0 0.1
          }
        }
      }
    }
  }
  JOINT r_up_leg
  {
    OFFSET -9.50369 -4.32711 2.09145
    CHANNELS 6 Xposition Yposition Zposition Zrotation Xrotation Yrotation
    JOINT r_low_leg
    {
      OFFSET 0.876987 -39.8926 -0.674123
      CHANNELS 6 Xposition Yposition Zposition Zrotation Xrotation Yrotation
      JOINT r_foot
      {
        OFFSET 2.39345 -41.5694 -6.22357
        CHANNELS 6 Xposition Yposition Zposition Zrotation Xrotation Yrotation
        JOINT r_toes
        {
          OFFSET -0.801613 -10.1701 12.8571
          CHANNELS 6 Xposition Yposition Zposition Zrotation Xrotation Yrotation
          End Site
          {
            OFFSET 0 0 0.1
          }
        }
      }
    }
  }
}
MOTION
Frames: 5
Frame Time: 0.020000
0 95.9893 0 -0 0 -0 0 5.22546 -1.18466 -0 0 -0 0 5.77894 1.10239 -0 0 -0 -1.0557e-17 6.16289 0.118334 -0 0 -0 -1.13649e-17 6.69386 -0.456341 -0 0 -0 -2.02997e-17 7.82529 -1.54945 -0 0 -0 -2.60628e-17 9.77186 -0.940923 -0 0 -0 -2.98794e-17 10.8563 1.62248 -0 0 -0 -1.32927e-17 4.92478 0.736013 -0 0 -0 -1.86396e-17 4.96043 0.433981 -0 0 -0 -2.06766e-17 4.97002 0.787173 -0 0 -0 1.26863 -7.82717 7.75148 -0 0 -0 13.3291 3.34342 -3.36319 -0 0 -0 30.0522 0.0615366 0.141 -0 0 -0 24.9344 0.0510561 0.116988 -0 0 -0 -1.26863 -7.82715 7.75138 -0 0 -0 -13.3291 3.34342 -3.36319 -0 0 -0 -30.0522 0.0615366 0.141 -0 0 -0 -24.9344 0.0510559 0.116988 -0 0 -0 9.50369 -4.32711 2.09145 -0 0 -0 -0.876987 -39.8926 -0.674123 -0 0 -0 -2.39345 -41.5694 -6.22357 -0 0 -0 0.801613 -10.1701 12.8571 -0 0 -0 -9.50369 -4.32711 2.09145 -0 0 -0 0.876987 -39.8926 -0.674123 -0 0 -0 2.39345 -41.5694 -6.22357 -0 0 -0 -0.801613 -10.1701 12.8571 -0 0 -0 
36.8178 53.8812 741.629 -8.47542 43.9366 -172.843 0 5.22546 -1.18466 -0.947983 6.6934 0.0119992 0 5.77894 1.10239 -0.939042 6.85587 -0.0831609 -1.0557e-17 6.16289 0.118334 -0.874693 7.38269 -0.0961107 -1.13649e-17 6.69386 -0.456341 -0.698266 8.22873 -0.102483 -2.02997e-17 7.82529 -1.54945 -0.54235 7.88031 -0.040918 -2.60628e-17 9.77186 -0.940923 -0.350308 8.0766 -0.03509 -2.98794e-17 10.8563 1.62248 -0.0629168 0.378671 -0.0985397 -1.32927e-17 4.92478 0.736013 -2.31265 -3.38216 -9.2449 -1.86396e-17 4.96043 0.433981 -0.742747 -9.21311 -4.62081 -2.06766e-17 4.97002 0.787173 -0.736077 -7.92104 -1.22007 1.26863 -7.82717 7.75148 2.83112 -0.556788 -1.76456 13.3291 3.34342 -3.36319 -56.4423 38.3282 -31.8118 30.0522 0.0615366 0.141 8.95615 -3.98417 -48.4875 24.9344 0.0510561 0.116988 2.01946 -6.02499 1.46743 -1.26863 -7.82715 7.75138 -3.02253 -1.3598 4.26568 -13.3291 3.34342 -3.36319 61.7418 38.2828 25.3508 -30.0522 0.0615366 0.141 -9.76048 -4.9832 54.6036 -24.9344 0.0510559 0.116988 3.27402 -16.7427 -0.408524 9.50369 -4.32711 2.09145 -0.699313 -42.734 -15.8342 -0.876987 -39.8926 -0.674123 -26.5067 60.0802 14.3169 -2.39345 -41.5694 -6.22357 -11.1524 16.9531 15.5983 0.801613 -10.1701 12.8571 1.1518e-16 -6.67908e-16 -1.98097e-16 -9.50369 -4.32711 2.09145 -2.02517 -45.7175 18.6703 0.876987 -39.8926 -0.674123 40.634 68.66 -26.9246 2.39345 -41.5694 -6.22357 5.40874 9.6448 -14.9381 -0.801613 -10.1701 12.8571 -6.0083e-16 -3.85853e-16 -1.25794e-14 
36.8161 53.8831 741.629 -8.46537 43.9277 -172.844 0 5.22546 -1.18466 -0.94651 6.68788 0.0116605 0 5.77894 1.10239 -0.937512 6.85095 -0.0833288 -1.0557e-17 6.16289 0.118334 -0.873274 7.37825 -0.0961983 -1.13649e-17 6.69386 -0.456341 -0.697011 8.22484 -0.102527 -2.02997e-17 7.82529 -1.54945 -0.541226 7.87746 -0.0411822 -2.60628e-17 9.77186 -0.940923 -0.349557 8.07407 -0.0357282 -2.98794e-17 10.8563 1.62248 -0.0628372 0.379114 -0.0985069 -1.32927e-17 4.92478 0.736013 -2.30706 -3.36307 -9.23789 -1.86396e-17 4.96043 0.433981 -0.739197 -9.21013 -4.61758 -2.06766e-17 4.97002 0.787173 -0.741439 -7.92174 -1.22225 1.26863 -7.82717 7.75148 2.84286 -0.556751 -1.75748 13.3291 3.34342 -3.36319 -56.465 38.3448 -31.8062 30.0522 0.0615366 0.141 8.95671 -3.98481 -48.4915 24.9344 0.0510561 0.116988 2.01873 -6.01837 1.47961 -1.26863 -7.82715 7.75138 -3.02958 -1.35938 4.25981 -13.3291 3.34342 -3.36319 61.7637 38.284 25.3491 -30.0522 0.0615366 0.141 -9.75897 -4.9811 54.5913 -24.9344 0.0510559 0.116988 3.27898 -16.7309 -0.408227 9.50369 -4.32711 2.09145 -0.693475 -42.7453 -15.8363 -0.876987 -39.8926 -0.674123 -26.5082 60.0816 14.3182 -2.39345 -41.5694 -6.22357 -11.1523 16.9595 15.5982 0.801613 -10.1701 12.8571 1.15886e-16 -6.67877e-16 -1.98141e-16 -9.50369 -4.32711 2.09145 -2.03277 -45.7215 18.6626 0.876987 -39.8926 -0.674123 40.6239 68.6559 -26.9153 2.39345 -41.5694 -6.22357 5.40986 9.63806 -14.9384 -0.801613 -10.1701 12.8571 -6.00124e-16 -3.85884e-16 -1.25795e-14 
36.8162 53.8847 741.628 -8.46735 43.9141 -172.856 0 5.22546 -1.18466 -0.949595 6.68063 0.0132864 0 5.77894 1.10239 -0.9403 6.84477 -0.0820897 -1.0557e-17 6.16289 0.118334 -0.875631 7.37341 -0.094839 -1.13649e-17 6.69386 -0.456341 -0.698789 8.22183 -0.101173 -2.02997e-17 7.82529 -1.54945 -0.542124 7.87639 -0.0395262 -2.60628e-17 9.77186 -0.940923 -0.34925 8.07355 -0.0341151 -2.98794e-17 10.8563 1.62248 -0.0626063 0.379307 -0.0985751 -1.32927e-17 4.92478 0.736013 -2.30217 -3.34445 -9.2292 -1.86396e-17 4.96043 0.433981 -0.733555 -9.20307 -4.61341 -2.06766e-17 4.97002 0.787173 -0.731527 -7.92452 -1.21709 1.26863 -7.82717 7.75148 2.85408 -0.558496 -1.75005 13.3291 3.34342 -3.36319 -56.4811 38.3555 -31.7996 30.0522 0.0615366 0.141 8.95566 -3.98363 -48.484 24.9344 0.0510561 0.116988 2.0246 -6.00841 1.47775 -1.26863 -7.82715 7.75138 -3.03541 -1.36007 4.25154 -13.3291 3.34342 -3.36319 61.7889 38.2896 25.3473 -30.0522 0.0615366 0.141 -9.75827 -4.98013 54.5856 -24.9344 0.0510559 0.116988 3.27895 -16.7157 -0.410678 9.50369 -4.32711 2.09145 -0.690852 -42.7553 -15.8353 -0.876987 -39.8926 -0.674123 -26.5075 60.0809 14.3176 -2.39345 -41.5694 -6.22357 -11.1582 16.9532 15.5987 0.801613 -10.1701 12.8571 1.15886e-16 -6.67877e-16 -1.98141e-16 -9.50369 -4.32711 2.09145 -2.04302 -45.7366 18.6606 0.876987 -39.8926 -0.674123 40.6201 68.6544 -26.9118 2.39345 -41.5694 -6.22357 5.41024 9.63956 -14.9381 -0.801613 -10.1701 12.8571 -6.00124e-16 -3.85884e-16 -1.25795e-14 
36.8146 53.8871 741.628 -8.467 43.9121 -172.849 0 5.22546 -1.18466 -0.949257 6.68499 0.013261 0 5.77894 1.10239 -0.939745 6.84582 -0.082144 -1.0557e-17 6.16289 0.118334 -0.875022 7.37103 -0.0948122 -1.13649e-17 6.69386 -0.456341 -0.698148 8.2138 -0.101112 -2.02997e-17 7.82529 -1.54945 -0.54135 7.86552 -0.0396052 -2.60628e-17 9.77186 -0.940923 -0.348275 8.06123 -0.0346115 -2.98794e-17 10.8563 1.62248 -0.0624273 0.380669 -0.0984047 -1.32927e-17 4.92478 0.736013 -2.29646 -3.3376 -9.21415 -1.86396e-17 4.96043 0.433981 -0.724202 -9.1957 -4.60556 -2.06766e-17 4.97002 0.787173 -0.734246 -7.90801 -1.22475 1.26863 -7.82717 7.75148 2.85784 -0.550558 -1.74962 13.3291 3.34342 -3.36319 -56.5088 38.3689 -31.7874 30.0522 0.0615366 0.141 8.95549 -3.98344 -48.4828 24.9344 0.0510561 0.116988 2.02284 -5.99965 1.48268 -1.26863 -7.82715 7.75138 -3.03935 -1.35222 4.25017 -13.3291 3.34342 -3.36319 61.823 38.2875 25.3275 -30.0522 0.0615366 0.141 -9.75745 -4.97899 54.5789 -24.9344 0.0510559 0.116988 3.2761 -16.6985 -0.411922 9.50369 -4.32711 2.09145 -0.693651 -42.7556 -15.8443 -0.876987 -39.8926 -0.674123 -26.5048 60.0786 14.3154 -2.39345 -41.5694 -6.22357 -11.1632 16.9554 15.5981 0.801613 -10.1701 12.8571 1.15886e-16 -6.67877e-16 -1.98141e-16 -9.50369 -4.32711 2.09145 -2.06476 -45.7339 18.6411 0.876987 -39.8926 -0.674123 40.6086 68.6497 -26.9012 2.39345 -41.5694 -6.22357 5.41472 9.63867 -14.9389 -0.801613 -10.1701 12.8571 -6.00124e-16 -3.85884e-16 -1.25795e-14 
